<svg xmlns="http://www.w3.org/2000/svg" viewBox="0 0 24 24" role="img" aria-label="Google">
  <path fill="#4285F4" d="M21.805 12.23c0-.709-.064-1.391-.182-2.045H12v3.868h5.498a4.7 4.7 0 0 1-2.04 3.083v2.51h3.304c1.934-1.78 3.043-4.4 3.043-7.416Z"/>
  <path fill="#34A853" d="M12 22c2.76 0 5.077-.915 6.762-2.354l-3.304-2.51c-.915.613-2.085.975-3.458.975-2.663 0-4.917-1.799-5.725-4.215H2.86v2.59A10.002 10.002 0 0 0 12 22Z"/>
  <path fill="#FBBC05" d="M6.275 13.896A6.01 6.01 0 0 1 5.962 12c0-.658.113-1.298.313-1.896v-2.59H2.86A10.002 10.002 0 0 0 2 12c0 1.613.386 3.14.86 4.486l3.415-2.59Z"/>
  <path fill="#EA4335" d="M12 5.889c1.5 0 2.845.515 3.906 1.526l2.93-2.93C17.073 2.842 14.756 2 12 2a10.002 10.002 0 0 0-9.14 5.514l3.415 2.59C7.083 7.688 9.337 5.89 12 5.89Z"/>
</svg>
